{"title":"The Right Stuff - [Drama] - (1983) - DVDRip x264 - [=Faith=]","uid":14348639,"size":2504605972,"categoryP":"video","categoryS":"movies","magnet":"?xt=urn:btih:83e2c4acea9202076042f3568ce052d7e48d4cc1&amp;dn=The+Right+Stuff+-+%5BDrama%5D+-+%281983%29+-+DVDRip+x264+-+%5B%3DFaith%3D%5D&amp;tr=udp%3A%2F%2Ftracker.leechers-paradise.org%3A6969&amp;tr=udp%3A%2F%2Fzer0day.ch%3A1337&amp;tr=udp%3A%2F%2Fopen.demonii.com%3A1337&amp;tr=udp%3A%2F%2Ftracker.coppersurfer.tk%3A6969&amp;tr=udp%3A%2F%2Fexodus.desync.com%3A6969","seeders":7,"leechers":0,"uploader":"Faithwyn","files":3,"time":1461006523,"description":"The Right Stuff\r\n\r\n\r\nThe story of the original Mercury 7 astronauts and their\r\nmacho, seat-of-the-pants approach to the space program.\r\n\r\n\r\nThe Film:\r\n\r\nTitle: The Right Stuff\r\nGenre: Adventure | Drama | History\r\nReleased: 21 October 1983 (USA)\r\nRuntime: 3:12\r\nDirector: Philip Kaufman\r\nWriters: Tom Wolfe (book), Philip Kaufman (screenplay)\r\nStars: Sam Shepard, Scott Glenn, Ed Harris, Dennis Quaid, Fred Ward\r\nPamela Reed, Barbara Hershey, Levon Helm, Kim Stanley\r\nLanguages: English, French\r\nSubtitles: English, French, Spanish\r\nIMDB Rating: 7.9\r\n\r\n\r\nGeneral:\r\n\r\nComplete name : The Right Stuff (1983).mp4\r\nFormat : MPEG-4\r\nFormat profile : Base Media / Version 2\r\nCodec ID : mp42\r\nFile size : 2.33 GiB\r\nDuration : 3h 12mn\r\nOverall bit rate mode : Variable\r\nOverall bit rate : 1 733 Kbps\r\nEncoded date : UTC 2014-04-07 07:42:56\r\nTagged date : UTC 2014-04-07 08:47:38\r\nWriting application : HandBrake 0.9.9\r\n\r\n\r\n\r\nVideo:\r\n\r\nID : 1\r\nFormat : AVC\r\nFormat/Info : Advanced Video Codec\r\nFormat profile :   \r\nFormat settings, CABAC : Yes\r\nFormat settings, ReFrames : 4 frames\r\nCodec ID : avc1\r\nCodec ID/Info : Advanced Video Coding\r\nDuration : 3h 12mn\r\nBit rate mode : Variable\r\nBit rate : 1 336 Kbps\r\nWidth : 720 pixels\r\nHeight : 400 pixels\r\nDisplay aspect ratio : 16:9\r\nFrame rate mode : Variable\r\nFrame rate : 23.976 fps\r\nMinimum frame rate : 23.974 fps\r\nMaximum frame rate : 23.981 fps\r\nColor space : YUV\r\nChroma subsampling : 4:2:0\r\nBit depth : 8 bits\r\nScan type : Progressive\r\nBits/(Pixel*Frame) : 0.193\r\nStream size : 1.80 GiB (77%)\r\nWriting library : x264 core 130 r2273 b3065e6\r\nColor primaries : BT.601 NTSC\r\nTransfer characteristics : BT.709\r\nMatrix coefficients : BT.601\r\n\r\n\r\n\r\n\r\nAudio 1:\r\n\r\nID : 2\r\nFormat : AAC\r\nFormat/Info : Advanced Audio Codec\r\nFormat profile : LC\r\nCodec ID : 40\r\nDuration : 3h 12mn\r\nBit rate mode : Variable\r\nBit rate : 192 Kbps\r\nMaximum bit rate : 271 Kbps\r\nChannel(s) : 2 channels\r\nChannel positions : Front: L R\r\nSampling rate : 48.0 KHz\r\nCompression mode : Lossy\r\nDelay relative to video : 83ms\r\nStream size : 265 MiB (11%)\r\nLanguage : English\r\n\r\n\r\n\r\nThe Right Stuff is a 1983 American drama film that was adapted from Tom Wolfe's\r\nbest-selling 1979 book of the same name about the Navy, Marine and Air Force \r\ntest pilots who were involved in aeronautical research at Edwards Air Force Base, \r\nCalifornia, as well as the seven military pilots who were selected to be the \r\nastronauts for ProjectMercury, the first attempt at manned spaceflight by the \r\nUnited States. The Right Stuff stars Ed Harris, Scott Glenn, Sam Shepard, \r\nFred Ward, Dennis Quaid and Barbara Hershey. Levon Helm is the narrator in the \r\nintroduction and elsewhere in the film, as well as having a co-starring role as \r\nAir Force test pilot Jack Ridley. In 2013 the film was selected for preservation \r\nin the United States National Film Registry by the Library of Congress as being \r\n&quot;culturally, historically, or aesthetically significant&quot;","torrent":{"xt":"urn:btih:83e2c4acea9202076042f3568ce052d7e48d4cc1","amp;dn":"The+Right+Stuff+-+%5BDrama%5D+-+%281983%29+-+DVDRip+x264+-+%5B%3DFaith%3D%5D","amp;tr":["udp%3A%2F%2Ftracker.leechers-paradise.org%3A6969","udp%3A%2F%2Fzer0day.ch%3A1337","udp%3A%2F%2Fopen.demonii.com%3A1337","udp%3A%2F%2Ftracker.coppersurfer.tk%3A6969","udp%3A%2F%2Fexodus.desync.com%3A6969"],"infoHash":"83e2c4acea9202076042f3568ce052d7e48d4cc1","infoHashBuffer":{"type":"Buffer","data":[131,226,196,172,234,146,2,7,96,66,243,86,140,224,82,215,228,141,76,193]},"announce":[],"urlList":[]}}